<svg width="34" height="34" viewBox="0 0 34 34" fill="none" xmlns="http://www.w3.org/2000/svg">
<path d="M1 0.999023V0.499023H0.5V0.999023H1ZM33 0.999023H33.5V0.499023H33V0.999023ZM33 32.999V33.499H33.5V32.999H33ZM1 32.999H0.5V33.499H1V32.999ZM16.5 27.999C16.5 28.2752 16.7239 28.499 17 28.499C17.2761 28.499 17.5 28.2752 17.5 27.999H16.5ZM17 5.99902L17.3536 5.64547C17.1583 5.45021 16.8417 5.45021 16.6464 5.64547L17 5.99902ZM7.64645 14.6455C7.45118 14.8407 7.45118 15.1573 7.64645 15.3526C7.84171 15.5478 8.15829 15.5478 8.35355 15.3526L7.64645 14.6455ZM25.6464 15.3526C25.8417 15.5478 26.1583 15.5478 26.3536 15.3526C26.5488 15.1573 26.5488 14.8407 26.3536 14.6455L25.6464 15.3526ZM1 1.49902H33V0.499023H1V1.49902ZM32.5 0.999023V32.999H33.5V0.999023H32.5ZM33 32.499H1V33.499H33V32.499ZM1.5 32.999V0.999023H0.5V32.999H1.5ZM17.5 27.999V5.99902H16.5V27.999H17.5ZM8.35355 15.3526L17.3536 6.35258L16.6464 5.64547L7.64645 14.6455L8.35355 15.3526ZM16.6464 6.35258L25.6464 15.3526L26.3536 14.6455L17.3536 5.64547L16.6464 6.35258Z" fill="#7B4AE2" fill-opacity="0.5"/>
</svg>
